<svg xmlns="http://www.w3.org/2000/svg" xmlns:xlink="http://www.w3.org/1999/xlink" version="1.1" width="3162.175444344336" height="909.3551869683633" viewBox="0 0 3162.175444344336 909.3551869683633">
<g transform="scale(8.108772217216808) translate(10, 10)">
<defs id="SvgjsDefs1106"></defs><g id="SvgjsG1107" featurekey="JQyOZB-0" transform="matrix(0.9802274404068652,0,0,0.9802274404068652,-20.682799366511947,0.19772559593134886)" fill="#474044"><g xmlns="http://www.w3.org/2000/svg"><polyline fill="none" stroke="#111111" stroke-linejoin="round" stroke-miterlimit="10" points="50.8,10 65.3,64.9 50.8,10    21.1,54.4 65.3,64.9  "></polyline><polygon stroke="#111111" stroke-linejoin="round" stroke-miterlimit="10" points="22.3,73.2 74.1,64.3 65.3,84.7  "></polygon><polygon fill="none" stroke="#111111" stroke-linejoin="round" stroke-miterlimit="10" points="58.2,20.3 55.1,26.6 56.6,32.4    60.8,23.9  "></polygon><polygon fill="none" stroke="#111111" stroke-linejoin="round" stroke-miterlimit="10" points="55.7,17 53.7,21.2 55.1,26.6    58.2,20.3  "></polygon><polygon fill="none" stroke="#111111" stroke-linejoin="round" stroke-miterlimit="10" points="60.8,23.9 56.6,32.4 58.1,37.8    63.2,27.4  "></polygon><polygon fill="none" stroke="#111111" stroke-linejoin="round" stroke-miterlimit="10" points="50.7,10 52.4,16.4 53.6,14  "></polygon><polygon fill="none" stroke="#111111" stroke-linejoin="round" stroke-miterlimit="10" points="53.6,14 52.4,16.4 53.7,21.2    55.7,17  "></polygon><polygon fill="none" stroke="#111111" stroke-linejoin="round" stroke-miterlimit="10" points="63.2,27.4 58.1,37.8 59.4,43    65.5,30.6  "></polygon><polygon fill="none" stroke="#111111" stroke-linejoin="round" stroke-miterlimit="10" points="75.2,43.9 73,41 63.9,59.7    65.2,64.9  "></polygon><polygon fill="none" stroke="#111111" stroke-linejoin="round" stroke-miterlimit="10" points="70.6,37.5 62.4,54.2 63.9,59.7    73,41  "></polygon><polygon fill="none" stroke="#111111" stroke-linejoin="round" stroke-miterlimit="10" points="68,34 60.9,48.4 62.4,54.2    70.6,37.5  "></polygon><polygon fill="none" stroke="#111111" stroke-linejoin="round" stroke-miterlimit="10" points="65.5,30.6 59.4,43 60.9,48.4 68,34     "></polygon></g></g><g id="SvgjsG1108" featurekey="SbCDzn-0" transform="matrix(1.8740989081391248,0,0,1.8740989081391248,73.11244672089154,-11.169632244920377)" fill="#474044"><path d="M9.66 15.440000000000001 c-1.26 0.82 -1.88 1.06 -2.74 1.06 c-0.6 0 -1.16 -0.16 -1.7 -0.48 c-1.06 -0.64 -1.78 -1.8 -1.78 -3 c0 -0.64 0.16 -1.24 0.48 -1.78 c0.62 -1.08 1.8 -1.72 3 -1.72 c0.76 0 1.44 0.22 2.02 0.64 c0.1 0.06 0.22 0.14 0.36 0.28 l0.3 0.22 l1.34 -1.58 l-0.22 -0.22 c-0.14 -0.14 -0.32 -0.26 -0.54 -0.4 c-0.94 -0.72 -2.04 -1.08 -3.26 -1.08 c-1.5 0 -2.88 0.58 -3.98 1.64 c-1.06 1.12 -1.66 2.5 -1.66 4 s0.6 2.92 1.66 3.98 s2.48 1.66 3.98 1.66 c1.08 0 2.08 -0.3 3.02 -0.9 l-0.4 -0.6 c-0.82 0.54 -1.68 0.8 -2.62 0.8 c-1.3 0 -2.54 -0.52 -3.48 -1.46 s-1.44 -2.18 -1.44 -3.48 s0.5 -2.52 1.44 -3.46 c0.94 -0.96 2.18 -1.46 3.48 -1.46 c0.98 0 1.92 0.3 2.86 0.92 l0.16 0.14 l-0.44 0.5 c-0.06 -0.02 -0.1 -0.04 -0.14 -0.08 c-0.74 -0.5 -1.56 -0.76 -2.44 -0.76 c-0.78 0 -1.48 0.18 -2.1 0.54 c-1.26 0.74 -2.1 2.2 -2.1 3.66 c0 0.7 0.2 1.4 0.58 2.06 c0.78 1.34 2.2 2.16 3.62 2.16 c0.94 0 1.7 -0.28 2.84 -1 l1.12 1.66 c-1.46 0.96 -2.6 1.36 -3.96 1.36 c-1.12 0 -2.16 -0.28 -3.12 -0.84 c-1.94 -1.12 -3.14 -3.16 -3.14 -5.4 c0 -1.12 0.28 -2.16 0.84 -3.14 c1.12 -1.92 3.18 -3.12 5.42 -3.12 c1.58 0 3.08 0.58 4.22 1.64 l0.12 0.1 l0.16 0.16 l0.5 -0.52 l-0.28 -0.28 c-1.28 -1.14 -2.96 -1.8 -4.72 -1.8 c-1.26 0 -2.42 0.3 -3.48 0.92 c-2.12 1.22 -3.5 3.56 -3.5 6.04 c0 1.22 0.32 2.38 0.96 3.46 c1.26 2.16 3.52 3.52 6.02 3.52 c1.58 0 2.9 -0.5 4.68 -1.72 l0.28 -0.18 l-1.9 -2.86 z M14.08 18.76 l0.88 0 l0.7 -1.68 l5.22 0.02 l1.28 2.9 l3.68 -0.02 l-6.3 -13.98 l-1.28 0 l-6.26 13.98 l3.9 0 l0.68 -1.6 l3.98 0 l-0.3 -0.68 l-4.12 0 l-0.64 1.58 l-2.38 0 l5.54 -12.6 l0.48 0 l5.56 12.6 l-2.12 0 l-1.28 -2.86 l-6.2 0 z M16.46 15.24 l2.44 -5.82 l4.1 9.32 l0.82 0 l-4.92 -10.96 l-3.6 8.08 l5.8 0 l-2.2 -4.86 l-1.52 3.66 l0.78 0 l0.74 -1.82 l1.1 2.4 l-3.54 0 z M27.279999999999998 5.98 l2.06 0 l0 12.7 l-0.74 0 l0 -11.98 l-0.6 0 l0 12.58 l6.58 0 l0 -1.92 l-3.26 0 l0 -0.72 l3.98 0 l0 3.36 l-8.02 0 l0 -14.02 z M29.999999999999996 5.98 l0.72 0 l0 11.96 l3.22 0 l0 0.74 l-3.94 0 l0 -12.7 z M42.88 18.72 l0.72 0 l-0.02 -5.82 l4.26 -6.18 l0.78 0 l-4.34 6.22 l0 6.34 l-2.06 0 l0.02 -6.34 l-4.86 -6.94 l-0.88 0 l4.98 7.16 l0 6.84 l3.52 0 l0 -6.84 l5 -7.16 l-2.52 0 l-4.6 6.66 l0 6.06 z M45.82 6 l-3.34 4.9 l-2.96 -4.18 l0.78 0 l2.24 3.16 l0.44 -0.64 l-2.3 -3.24 l-2.52 0 l3.98 5.66 l0.34 0.52 l4.22 -6.18 l-0.88 0 z M51.3 5.98 l0.74 0 l0 13.28 l1.98 0 l0 -4.82 l2.46 0 c0.9 0 1.64 -0.2 2.26 -0.62 c0.96 -0.58 1.46 -1.76 1.46 -3.3 c0 -2.48 -1.4 -3.8 -3.98 -3.8 l-2.86 0 l0 4.98 l2.56 0 c1.04 0 1.44 -0.32 1.44 -1.18 c0 -0.7 -0.34 -1.04 -1.04 -1.04 l-1.52 0 l0 1.62 l-0.74 0.02 l0 -2.34 l2.26 0 c1.1 0 1.72 0.64 1.72 1.74 c0 1.28 -0.7 1.92 -2.12 1.92 l-3.24 0 l0 -6.46 l3.54 0 c2.9 0 4.68 1.68 4.68 4.54 c0 2.96 -1.62 4.66 -4.42 4.66 l-1.72 0 l0 4.82 l-3.46 0 l0 -14.02 z M52.68 13.1 l3.36 0 c1.86 0 2.76 -0.8 2.76 -2.48 c0 -1.58 -0.86 -2.5 -2.24 -2.5 l-2.5 0 l0 -0.72 l2.5 0 c0.56 0 1.08 0.12 1.54 0.38 c0.94 0.5 1.42 1.5 1.42 2.84 c0 2.08 -1.16 3.18 -3.48 3.18 l-2.68 0 l0 5 l-0.68 0 l0 -5.7 z M64.28 16.7 c0.98 0.44 1.84 0.66 2.56 0.66 c0.36 0 0.58 -0.02 0.68 -0.08 c0.46 -0.12 0.78 -0.38 0.98 -0.78 l0.02 -0.04 c0.1 -0.18 0.14 -0.4 0.14 -0.68 c0 -0.14 -0.04 -0.3 -0.12 -0.5 l-0.04 -0.08 c-0.26 -0.54 -0.84 -0.9 -1.9 -1.24 l-0.2 -0.06 l-0.06 -0.02 c-1.62 -0.48 -2.66 -1.24 -3.16 -2.3 c-0.2 -0.4 -0.3 -0.84 -0.3 -1.32 c0 -0.5 0.1 -0.98 0.3 -1.48 l0.04 -0.08 c0.46 -0.92 1.2 -1.52 2.18 -1.82 c0.7 -0.1 1.1 -0.16 1.2 -0.16 c1.36 0 2.94 0.56 4.72 1.66 l0.38 -0.62 c-1.94 -1.18 -3.62 -1.76 -5.08 -1.76 c-0.58 0 -1.06 0.06 -1.4 0.2 c-1.18 0.32 -2.06 1.04 -2.64 2.18 l-0.06 0.14 c-0.24 0.58 -0.36 1.16 -0.36 1.74 c0 0.62 0.12 1.16 0.36 1.64 c0.62 1.24 1.82 2.12 3.62 2.66 l0.24 0.08 c0.82 0.26 1.3 0.54 1.48 0.86 l0.02 0.04 c0.04 0.06 0.06 0.14 0.06 0.24 c0 0.18 -0.02 0.3 -0.08 0.4 c-0.14 0.32 -0.48 0.48 -1.02 0.48 c-0.86 0 -2.1 -0.44 -3.06 -1.06 l-0.3 -0.18 l-1.76 2.84 l0.3 0.18 c1.42 0.96 3.3 1.56 4.82 1.56 c0.5 0 0.96 -0.06 1.38 -0.18 c1.18 -0.34 2.06 -1.08 2.64 -2.2 l0.08 -0.14 c0.24 -0.62 0.36 -1.2 0.36 -1.74 c0 -0.48 -0.16 -1.08 -0.46 -1.82 c-0.54 -1.08 -1.68 -1.9 -3.46 -2.46 l-0.28 -0.08 c-0.56 -0.18 -0.94 -0.36 -1.12 -0.5 c-0.24 -0.2 -0.38 -0.34 -0.44 -0.42 l-0.04 -0.22 c0 -0.2 0.04 -0.38 0.14 -0.52 c0.16 -0.3 0.32 -0.38 0.96 -0.38 c0.86 0 2.1 0.44 3.06 1.06 l0.3 0.18 l1.08 -1.72 l-0.32 -0.18 c-1.22 -0.8 -2.88 -1.36 -4.1 -1.36 c-0.54 0 -0.88 0.04 -1.06 0.14 c-0.82 0.24 -1.44 0.76 -1.84 1.54 c-0.18 0.34 -0.26 0.74 -0.26 1.24 c0 0.38 0.08 0.74 0.24 1.08 c0.42 0.9 1.36 1.56 2.82 2 l0.26 0.08 l0.54 0.2 c0.3 0.12 0.62 0.28 0.98 0.48 c0.64 0.38 0.96 0.92 0.96 1.64 c0 0.4 -0.1 0.78 -0.28 1.12 c-0.42 0.74 -1.14 1.12 -2.14 1.12 c-0.68 0 -1.64 -0.26 -2.88 -0.76 l-0.34 0.58 l-0.02 0.04 c1.14 0.58 2.22 0.86 3.26 0.86 c0.58 0 1.12 -0.12 1.6 -0.36 c0.94 -0.46 1.52 -1.42 1.52 -2.62 c0 -1.9 -1.46 -2.46 -3 -3 l-0.26 -0.08 c-1.26 -0.38 -2.04 -0.9 -2.36 -1.6 c-0.12 -0.24 -0.18 -0.5 -0.18 -0.8 c0 -0.38 0.06 -0.68 0.2 -0.94 c0.32 -0.58 0.78 -0.96 1.38 -1.14 l0.8 -0.1 c1.06 0 2.22 0.36 3.48 1.06 l-0.32 0.5 c-1.3 -0.64 -2.34 -0.96 -3.1 -0.96 c-0.38 0 -0.6 0.02 -0.7 0.08 c-0.44 0.12 -0.76 0.38 -0.98 0.8 l-0.02 0.04 c-0.1 0.18 -0.14 0.42 -0.14 0.72 c0 0.22 0.04 0.38 0.1 0.48 c0.26 0.54 0.94 0.98 2.02 1.3 l0.26 0.08 l0.5 0.16 c0.06 0.02 0.38 0.16 0.96 0.44 c0.78 0.44 1.34 1 1.66 1.66 c0.2 0.4 0.3 0.84 0.3 1.32 c0 0.58 -0.1 1.08 -0.32 1.5 l-0.04 0.08 c-0.46 0.92 -1.2 1.52 -2.18 1.82 c-0.7 0.1 -1.1 0.16 -1.2 0.16 c-1.02 0 -2.34 -0.38 -3.56 -0.96 l-0.56 -0.3 l1 -1.62 z M79.54 20 c-1.22 0 -2.38 -0.32 -3.48 -0.96 c-2.2 -1.26 -3.56 -3.58 -3.56 -6.06 c0 -1.24 0.32 -2.4 0.96 -3.5 c1.26 -2.16 3.62 -3.52 6.08 -3.52 c1.22 0 2.4 0.32 3.5 0.94 c2.2 1.28 3.52 3.66 3.52 6.08 c0 1.22 -0.32 2.36 -0.94 3.46 c-1.28 2.2 -3.6 3.56 -6.08 3.56 z M79.54 6.66 c-1.14 0 -2.2 0.28 -3.16 0.84 c-1.94 1.12 -3.14 3.18 -3.14 5.48 c0 1.14 0.28 2.2 0.84 3.16 c1.12 1.94 3.16 3.14 5.46 3.14 c1.14 0 2.2 -0.28 3.18 -0.84 c1.94 -1.12 3.14 -3.16 3.14 -5.46 c0 -1.14 -0.28 -2.2 -0.84 -3.18 c-1.12 -1.94 -3.24 -3.14 -5.48 -3.14 z M79.54 18.64 c-1 0 -1.94 -0.26 -2.84 -0.76 c-1.78 -1.02 -2.88 -2.88 -2.88 -4.9 c0 -1.02 0.26 -1.96 0.76 -2.84 c1.02 -1.76 2.82 -2.8 4.96 -2.8 c1.08 0 2.06 0.24 2.92 0.72 c1.72 0.96 2.72 2.76 2.72 4.92 c0 1.02 -0.24 1.96 -0.72 2.82 c-0.98 1.74 -2.9 2.84 -4.92 2.84 z M79.54 8.04 c-0.9 0 -1.72 0.22 -2.48 0.66 c-1.54 0.88 -2.48 2.46 -2.48 4.28 c0 0.88 0.22 1.7 0.68 2.46 c0.88 1.54 2.44 2.5 4.28 2.5 c0.9 0 1.72 -0.22 2.48 -0.68 c1.5 -0.88 2.46 -2.52 2.46 -4.28 c0 -0.9 -0.22 -1.74 -0.66 -2.5 c-0.88 -1.52 -2.54 -2.44 -4.28 -2.44 z M79.54 17.34 c-0.78 0 -1.52 -0.2 -2.18 -0.58 c-1.34 -0.78 -2.2 -2.26 -2.2 -3.78 c0 -0.78 0.2 -1.52 0.6 -2.2 c0.78 -1.36 2.16 -2.14 3.78 -2.14 c0.78 0 1.5 0.2 2.16 0.58 c1.34 0.78 2.12 2.14 2.12 3.76 c0 0.8 -0.18 1.52 -0.54 2.18 c-0.74 1.32 -2.16 2.18 -3.74 2.18 z M79.54 9.36 c-0.64 0 -1.24 0.16 -1.8 0.48 c-1.12 0.66 -1.84 1.84 -1.84 3.14 c0 0.64 0.16 1.24 0.48 1.78 c0.64 1.12 1.8 1.8 3.16 1.8 c0.66 0 1.28 -0.16 1.82 -0.48 c1.1 -0.64 1.76 -1.82 1.76 -3.1 c0 -0.66 -0.16 -1.26 -0.48 -1.82 c-0.64 -1.12 -1.82 -1.8 -3.1 -1.8 z M94.72 6 l3.48 0 l0 4.62 l-0.74 0 l0 -3.88 l-2.02 0 l0 12.52 l2.02 0 l0 -3.86 l0.74 0 l0 4.6 l-3.48 0 l0 -14 z M96.10000000000001 7.32 l0.72 0 l0 3.92 l6.1 0 l0 -5.24 l0.7 0 l0 5.94 l-7.52 0 l0 -4.62 z M105.76 6.74 l-0.68 0 l0 5.26 l-0.72 0 l0 -6 l2.1 0 l0 14 l-0.7 0 l0 -13.26 z M102.92 14.76 l-6.1 0 l0 4.02 l-0.74 0 l0 -4.76 l7.54 0 l0 5.24 l0.74 0 l0 -5.9 l-8.28 0 l0 -0.7 l9 0 l0 7.34 l-2.16 0 l0 -5.24 z M107.76 6.039999999999999 l0.72 0 l0 13.24 l7.66 0 l0 -2 l-5.64 0 l0 -1.92 l0.72 0 l0 1.2 l5.64 0 l0 3.44 l-9.1 0 l0 -13.96 z M109.12 6.039999999999999 l7.64 0 l0 3.42 l-4.8 0 l0 -0.72 l4.08 0 l0 -1.98 l-6.2 0 l0 5.78 l4.66 0 l0 0.72 l-5.38 0 l0 -7.22 z M109.12 13.9 l6.08 0 l0 -2 l-4.7 0 l0 -4.54 l4.84 0 l0 0.72 l-4.12 0 l0 3.1 l4.7 0 l0 3.44 l-6.08 0 l0 3.32 l5.6 0 l0 0.72 l-6.32 0 l0 -4.76 z M120.10000000000001 18.76 l0.88 0 l0.7 -1.68 l5.22 0.02 l1.28 2.9 l3.68 -0.02 l-6.3 -13.98 l-1.28 0 l-6.26 13.98 l3.9 0 l0.68 -1.6 l3.98 0 l-0.3 -0.68 l-4.12 0 l-0.64 1.58 l-2.38 0 l5.54 -12.6 l0.48 0 l5.56 12.6 l-2.12 0 l-1.28 -2.86 l-6.2 0 z M122.48 15.24 l2.44 -5.82 l4.1 9.32 l0.82 0 l-4.92 -10.96 l-3.6 8.08 l5.8 0 l-2.2 -4.86 l-1.52 3.66 l0.78 0 l0.74 -1.82 l1.1 2.4 l-3.54 0 z M129.70000000000002 6.74 l2.26 0 l3.48 7.24 l0.42 -0.86 l-3.44 -7.12 l-3.9 0 l6.74 14 l0.34 0 l6.42 -13.26 l0.7 0 l-6.44 13.26 l0.82 0 l6.8 -14 l-2.34 0 l-6.12 12.6 z M135.46 17.22 l5.42 -11.22 l-0.84 0 l-4.58 9.52 l-3.94 -8.14 l-0.82 0 z M151.28 18.72 l0.72 0 l-0.02 -5.82 l4.26 -6.18 l0.78 0 l-4.34 6.22 l0 6.34 l-2.06 0 l0.02 -6.34 l-4.86 -6.94 l-0.88 0 l4.98 7.16 l0 6.84 l3.52 0 l0 -6.84 l5 -7.16 l-2.52 0 l-4.6 6.66 l0 6.06 z M154.22 6 l-3.34 4.9 l-2.96 -4.18 l0.78 0 l2.24 3.16 l0.44 -0.64 l-2.3 -3.24 l-2.52 0 l3.98 5.66 l0.34 0.52 l4.22 -6.18 l-0.88 0 z"></path></g><g id="SvgjsG1109" featurekey="SbCDzn-1" transform="matrix(2.799488246625954,0,0,2.799488246625954,68.52082040727849,19.259060231780794)" fill="#474044"><path d="M1.6 6 l2.1 0 l0 12.66 l-0.72 0 l0 -11.94 l-0.66 0 l0 12.56 l2.02 0 l0 -13.28 l0.72 0 l0 14 l-3.46 0 l0 -14 z M16.34 14.3 l-8.18 -8.3 l-1 0 l9.9 10.06 l0 -8.66 l-0.72 0 l0 6.9 z M15.68 12.7 l0 -6 l2.04 0 l0 12.58 l-0.34 0 l-0.08 -0.08 l-9.16 -9.28 l0 10.08 l2.1 0 l0 -5.9 l-0.74 -0.76 l0 5.94 l-0.64 0 l0 -7.6 l8.3 8.32 l1.28 0 l0 -14 l-3.48 0 l0 5.92 z M7.4799999999999995 20 l0 -11.7 l9.58 9.72 l0 -1.06 l-10.28 -10.38 l0 13.42 l0.7 0 z M30.239999999999995 8.02 c-1.2 -1.26 -2.74 -2 -4.24 -2 l-5.86 0 l0 0.72 l5.86 0.02 c0.94 0 1.84 0.3 2.7 0.88 c1.68 1.18 2.8 3.3 2.8 5.36 c0 1.08 -0.24 2.08 -0.74 3.02 c-1 1.86 -3.02 3.22 -4.76 3.22 l-5.14 0 l0 -11.22 l4.98 0.02 c0.72 0 1.42 0.22 2.08 0.68 c1.34 0.9 2.22 2.62 2.22 4.28 c0 1.22 -0.52 2.48 -1.46 3.46 c-0.88 0.88 -1.94 1.44 -2.82 1.44 l-2.28 0 l0.02 -7.9 l-0.7 0 l-0.02 8.26 l0 0.36 l2.98 0 c1.1 0 2.38 -0.62 3.36 -1.66 c1.06 -1.14 1.64 -2.54 1.64 -3.96 c0 -1.44 -0.56 -2.88 -1.58 -4 c-1.1 -1.1 -2.3 -1.7 -3.44 -1.7 l-5.7 0 l0 12.68 l5.86 0 c1.44 0 3 -0.74 4.18 -2 c1.3 -1.34 2.02 -3.12 2.02 -4.98 s-0.68 -3.62 -1.96 -4.98 z M25.779999999999998 17.259999999999998 c0.56 0 1.14 -0.22 1.76 -0.64 c1.22 -0.86 2 -2.3 2 -3.64 c0 -0.72 -0.18 -1.42 -0.52 -2.1 c-0.7 -1.34 -1.96 -2.18 -3.24 -2.18 l-4.3 0.02 l0.02 9.94 l0.72 0 l0 -9.24 l3.56 -0.02 c0.46 0 0.94 0.18 1.44 0.52 c1.02 0.72 1.6 1.84 1.6 3.06 c0 0.82 -0.38 1.74 -1 2.44 s-1.38 1.12 -2.04 1.12 l-1.42 0 l0 0.72 l1.42 0 z M39.78 20 c-1.94 0 -3.42 -0.5 -4.4 -1.5 c-0.96 -0.96 -1.46 -2.38 -1.46 -4.06 l0 -8.42 l3.4 0 l0 8.42 c0 1.52 0.74 2.16 2.36 2.16 c1.58 0 2.44 -0.78 2.44 -2.16 l0 -8.42 l2.06 0 l0 8.42 c0 1.06 -0.28 2.06 -0.82 2.78 c-0.72 0.98 -1.86 1.44 -3.62 1.44 c-1.02 0 -1.84 -0.14 -2.46 -0.44 c-1.26 -0.58 -2.02 -1.88 -2.02 -3.78 l0 -7.14 l0.72 0 l0 7.14 c0 2.26 1.3 3.5 3.76 3.5 s3.72 -1.24 3.72 -3.5 l0 -7.7 l-0.62 0 l0 7.7 c0 1.76 -1.18 2.88 -3.16 2.88 c-2 0 -3.06 -1.02 -3.06 -2.88 l0 -7.7 l-1.98 0 l0 7.7 c0 3.18 1.76 4.84 5.14 4.84 c1.76 0 2.96 -0.42 3.78 -1.28 s1.26 -2.1 1.26 -3.56 l0 -8.42 l0.72 0 l0 8.42 c0 1.68 -0.52 3.08 -1.48 4.06 c-0.96 1 -2.38 1.5 -4.28 1.5 z M49.00000000000001 16.7 c0.98 0.44 1.84 0.66 2.56 0.66 c0.36 0 0.58 -0.02 0.68 -0.08 c0.46 -0.12 0.78 -0.38 0.98 -0.78 l0.02 -0.04 c0.1 -0.18 0.14 -0.4 0.14 -0.68 c0 -0.14 -0.04 -0.3 -0.12 -0.5 l-0.04 -0.08 c-0.26 -0.54 -0.84 -0.9 -1.9 -1.24 l-0.2 -0.06 l-0.06 -0.02 c-1.62 -0.48 -2.66 -1.24 -3.16 -2.3 c-0.2 -0.4 -0.3 -0.84 -0.3 -1.32 c0 -0.5 0.1 -0.98 0.3 -1.48 l0.04 -0.08 c0.46 -0.92 1.2 -1.52 2.18 -1.82 c0.7 -0.1 1.1 -0.16 1.2 -0.16 c1.36 0 2.94 0.56 4.72 1.66 l0.38 -0.62 c-1.94 -1.18 -3.62 -1.76 -5.08 -1.76 c-0.58 0 -1.06 0.06 -1.4 0.2 c-1.18 0.32 -2.06 1.04 -2.64 2.18 l-0.06 0.14 c-0.24 0.58 -0.36 1.16 -0.36 1.74 c0 0.62 0.12 1.16 0.36 1.64 c0.62 1.24 1.82 2.12 3.62 2.66 l0.24 0.08 c0.82 0.26 1.3 0.54 1.48 0.86 l0.02 0.04 c0.04 0.06 0.06 0.14 0.06 0.24 c0 0.18 -0.02 0.3 -0.08 0.4 c-0.14 0.32 -0.48 0.48 -1.02 0.48 c-0.86 0 -2.1 -0.44 -3.06 -1.06 l-0.3 -0.18 l-1.76 2.84 l0.3 0.18 c1.42 0.96 3.3 1.56 4.82 1.56 c0.5 0 0.96 -0.06 1.38 -0.18 c1.18 -0.34 2.06 -1.08 2.64 -2.2 l0.08 -0.14 c0.24 -0.62 0.36 -1.2 0.36 -1.74 c0 -0.48 -0.16 -1.08 -0.46 -1.82 c-0.54 -1.08 -1.68 -1.9 -3.46 -2.46 l-0.28 -0.08 c-0.56 -0.18 -0.94 -0.36 -1.12 -0.5 c-0.24 -0.2 -0.38 -0.34 -0.44 -0.42 l-0.04 -0.22 c0 -0.2 0.04 -0.38 0.14 -0.52 c0.16 -0.3 0.32 -0.38 0.96 -0.38 c0.86 0 2.1 0.44 3.06 1.06 l0.3 0.18 l1.08 -1.72 l-0.32 -0.18 c-1.22 -0.8 -2.88 -1.36 -4.1 -1.36 c-0.54 0 -0.88 0.04 -1.06 0.14 c-0.82 0.24 -1.44 0.76 -1.84 1.54 c-0.18 0.34 -0.26 0.74 -0.26 1.24 c0 0.38 0.08 0.74 0.24 1.08 c0.42 0.9 1.36 1.56 2.82 2 l0.26 0.08 l0.54 0.2 c0.3 0.12 0.62 0.28 0.98 0.48 c0.64 0.38 0.96 0.92 0.96 1.64 c0 0.4 -0.1 0.78 -0.28 1.12 c-0.42 0.74 -1.14 1.12 -2.14 1.12 c-0.68 0 -1.64 -0.26 -2.88 -0.76 l-0.34 0.58 l-0.02 0.04 c1.14 0.58 2.22 0.86 3.26 0.86 c0.58 0 1.12 -0.12 1.6 -0.36 c0.94 -0.46 1.52 -1.42 1.52 -2.62 c0 -1.9 -1.46 -2.46 -3 -3 l-0.26 -0.08 c-1.26 -0.38 -2.04 -0.9 -2.36 -1.6 c-0.12 -0.24 -0.18 -0.5 -0.18 -0.8 c0 -0.38 0.06 -0.68 0.2 -0.94 c0.32 -0.58 0.78 -0.96 1.38 -1.14 l0.8 -0.1 c1.06 0 2.22 0.36 3.48 1.06 l-0.32 0.5 c-1.3 -0.64 -2.34 -0.96 -3.1 -0.96 c-0.38 0 -0.6 0.02 -0.7 0.08 c-0.44 0.12 -0.76 0.38 -0.98 0.8 l-0.02 0.04 c-0.1 0.18 -0.14 0.42 -0.14 0.72 c0 0.22 0.04 0.38 0.1 0.48 c0.26 0.54 0.94 0.98 2.02 1.3 l0.26 0.08 l0.5 0.16 c0.06 0.02 0.38 0.16 0.96 0.44 c0.78 0.44 1.34 1 1.66 1.66 c0.2 0.4 0.3 0.84 0.3 1.32 c0 0.58 -0.1 1.08 -0.32 1.5 l-0.04 0.08 c-0.46 0.92 -1.2 1.52 -2.18 1.82 c-0.7 0.1 -1.1 0.16 -1.2 0.16 c-1.02 0 -2.34 -0.38 -3.56 -0.96 l-0.56 -0.3 l1 -1.62 z M62.06 8.6 l4.78 0 l0 -1.9 l-8.5 0 l0 0.62 l7.82 0 l0 0.72 l-8.54 0 l0 -2.06 l9.94 0 l0 3.34 l-4.78 0 l0 9.36 l-0.72 0 l0 -10.08 z M60.720000000000006 9.32 l-3.1 0 l0 -0.72 l3.82 0 l0 10.66 l2 0 l0 -9.32 l0.72 0 l0 10.06 l-3.44 0 l0 -10.68 z M79.28 19.28 l-2.3 0 l-2.76 -5.14 l-1.86 0.02 l0 5.12 l-2.02 0 l0 -13.28 l-0.72 0 l0 14 l3.48 0 l0 -5.14 l0.7 0 l2.74 5.14 l3.94 0 l-2.76 -5.16 l-0.66 0.26 z M74.52000000000001 6.720000000000001 c2.9 0 4.54 1.3 4.54 3.68 c0 2.16 -1.3 3.48 -3.56 3.72 l-0.54 0.06 l2.5 4.62 l0.82 0 l-2.18 -4.06 c2.4 -0.42 3.68 -1.88 3.68 -4.34 c0 -0.82 -0.18 -1.56 -0.52 -2.22 c-0.8 -1.42 -2.44 -2.18 -4.74 -2.18 l-3.54 0 l0 12.78 l0.72 0 l0 -12.06 l2.82 0 z M74.36000000000001 13.52 c2.74 0 4.04 -0.94 4.04 -3.02 c0 -1.98 -1.36 -3.1 -3.54 -3.1 l-2.52 0 l0 2.1 l2.3 0 c1.06 0 1.6 0.3 1.6 0.9 c0 0.7 -0.66 1.04 -2 1.04 l-1.16 0 l0 -1.24 l-0.74 0 l0 1.96 l1.9 0 c1.78 0 2.72 -0.62 2.72 -1.76 c0 -0.36 -0.08 -0.64 -0.26 -0.86 c-0.34 -0.5 -1.02 -0.74 -2.06 -0.74 l-1.56 0 l0 -0.68 l1.78 0 c1.78 0 2.82 0.86 2.82 2.38 c0 1.58 -1.06 2.32 -3.32 2.32 l-2 0 l0 0.7 l2 0 z M82.19999999999999 6 l2.1 0 l0 12.66 l-0.72 0 l0 -11.94 l-0.66 0 l0 12.56 l2.02 0 l0 -13.28 l0.72 0 l0 14 l-3.46 0 l0 -14 z M87.44 6.039999999999999 l0.72 0 l0 13.24 l7.66 0 l0 -2 l-5.64 0 l0 -1.92 l0.72 0 l0 1.2 l5.64 0 l0 3.44 l-9.1 0 l0 -13.96 z M88.8 6.039999999999999 l7.64 0 l0 3.42 l-4.8 0 l0 -0.72 l4.08 0 l0 -1.98 l-6.2 0 l0 5.78 l4.66 0 l0 0.72 l-5.38 0 l0 -7.22 z M88.8 13.9 l6.08 0 l0 -2 l-4.7 0 l0 -4.54 l4.84 0 l0 0.72 l-4.12 0 l0 3.1 l4.7 0 l0 3.44 l-6.08 0 l0 3.32 l5.6 0 l0 0.72 l-6.32 0 l0 -4.76 z M100.26 16.7 c0.98 0.44 1.84 0.66 2.56 0.66 c0.36 0 0.58 -0.02 0.68 -0.08 c0.46 -0.12 0.78 -0.38 0.98 -0.78 l0.02 -0.04 c0.1 -0.18 0.14 -0.4 0.14 -0.68 c0 -0.14 -0.04 -0.3 -0.12 -0.5 l-0.04 -0.08 c-0.26 -0.54 -0.84 -0.9 -1.9 -1.24 l-0.2 -0.06 l-0.06 -0.02 c-1.62 -0.48 -2.66 -1.24 -3.16 -2.3 c-0.2 -0.4 -0.3 -0.84 -0.3 -1.32 c0 -0.5 0.1 -0.98 0.3 -1.48 l0.04 -0.08 c0.46 -0.92 1.2 -1.52 2.18 -1.82 c0.7 -0.1 1.1 -0.16 1.2 -0.16 c1.36 0 2.94 0.56 4.72 1.66 l0.38 -0.62 c-1.94 -1.18 -3.62 -1.76 -5.08 -1.76 c-0.58 0 -1.06 0.06 -1.4 0.2 c-1.18 0.32 -2.06 1.04 -2.64 2.18 l-0.06 0.14 c-0.24 0.58 -0.36 1.16 -0.36 1.74 c0 0.62 0.12 1.16 0.36 1.64 c0.62 1.24 1.82 2.12 3.62 2.66 l0.24 0.08 c0.82 0.26 1.3 0.54 1.48 0.86 l0.02 0.04 c0.04 0.06 0.06 0.14 0.06 0.24 c0 0.18 -0.02 0.3 -0.08 0.4 c-0.14 0.32 -0.48 0.48 -1.02 0.48 c-0.86 0 -2.1 -0.44 -3.06 -1.06 l-0.3 -0.18 l-1.76 2.84 l0.3 0.18 c1.42 0.96 3.3 1.56 4.82 1.56 c0.5 0 0.96 -0.06 1.38 -0.18 c1.18 -0.34 2.06 -1.08 2.64 -2.2 l0.08 -0.14 c0.24 -0.62 0.36 -1.2 0.36 -1.74 c0 -0.48 -0.16 -1.08 -0.46 -1.82 c-0.54 -1.08 -1.68 -1.9 -3.46 -2.46 l-0.28 -0.08 c-0.56 -0.18 -0.94 -0.36 -1.12 -0.5 c-0.24 -0.2 -0.38 -0.34 -0.44 -0.42 l-0.04 -0.22 c0 -0.2 0.04 -0.38 0.14 -0.52 c0.16 -0.3 0.32 -0.38 0.96 -0.38 c0.86 0 2.1 0.44 3.06 1.06 l0.3 0.18 l1.08 -1.72 l-0.32 -0.18 c-1.22 -0.8 -2.88 -1.36 -4.1 -1.36 c-0.54 0 -0.88 0.04 -1.06 0.14 c-0.82 0.24 -1.44 0.76 -1.84 1.54 c-0.18 0.34 -0.26 0.74 -0.26 1.24 c0 0.38 0.08 0.74 0.24 1.08 c0.42 0.9 1.36 1.56 2.82 2 l0.26 0.08 l0.54 0.2 c0.3 0.12 0.62 0.28 0.98 0.48 c0.64 0.38 0.96 0.92 0.96 1.64 c0 0.4 -0.1 0.78 -0.28 1.12 c-0.42 0.74 -1.14 1.12 -2.14 1.12 c-0.68 0 -1.64 -0.26 -2.88 -0.76 l-0.34 0.58 l-0.02 0.04 c1.14 0.58 2.22 0.86 3.26 0.86 c0.58 0 1.12 -0.12 1.6 -0.36 c0.94 -0.46 1.52 -1.42 1.52 -2.62 c0 -1.9 -1.46 -2.46 -3 -3 l-0.26 -0.08 c-1.26 -0.38 -2.04 -0.9 -2.36 -1.6 c-0.12 -0.24 -0.18 -0.5 -0.18 -0.8 c0 -0.38 0.06 -0.68 0.2 -0.94 c0.32 -0.58 0.78 -0.96 1.38 -1.14 l0.8 -0.1 c1.06 0 2.22 0.36 3.48 1.06 l-0.32 0.5 c-1.3 -0.64 -2.34 -0.96 -3.1 -0.96 c-0.38 0 -0.6 0.02 -0.7 0.08 c-0.44 0.12 -0.76 0.38 -0.98 0.8 l-0.02 0.04 c-0.1 0.18 -0.14 0.42 -0.14 0.72 c0 0.22 0.04 0.38 0.1 0.48 c0.26 0.54 0.94 0.98 2.02 1.3 l0.26 0.08 l0.5 0.16 c0.06 0.02 0.38 0.16 0.96 0.44 c0.78 0.44 1.34 1 1.66 1.66 c0.2 0.4 0.3 0.84 0.3 1.32 c0 0.58 -0.1 1.08 -0.32 1.5 l-0.04 0.08 c-0.46 0.92 -1.2 1.52 -2.18 1.82 c-0.7 0.1 -1.1 0.16 -1.2 0.16 c-1.02 0 -2.34 -0.38 -3.56 -0.96 l-0.56 -0.3 l1 -1.62 z"></path></g><g id="SvgjsG1110" featurekey="m0CQaI-0" transform="matrix(0.40639025435049947,0,0,0.40639025435049947,72.60173734920326,83.862387362883)" fill="#474044"><path d="M12 9.84 l-1.82 0 c-0.1 -2.22 -1.94 -2.92 -3.56 -2.92 c-1.22 0 -3.28 0.34 -3.28 2.52 c0 1.22 0.86 1.62 1.7 1.82 l4.1 0.94 c1.86 0.44 3.26 1.56 3.26 3.84 c0 3.4 -3.16 4.34 -5.62 4.34 c-2.66 0 -3.7 -0.8 -4.34 -1.38 c-1.22 -1.1 -1.46 -2.3 -1.46 -3.64 l1.82 0 c0 2.6 2.12 3.36 3.96 3.36 c1.4 0 3.76 -0.36 3.76 -2.42 c0 -1.5 -0.7 -1.98 -3.06 -2.54 l-2.94 -0.68 c-0.94 -0.22 -3.06 -0.88 -3.06 -3.38 c0 -2.24 1.46 -4.44 4.94 -4.44 c5.02 0 5.52 3 5.6 4.58 z M34.316 11.58 l0 -5.94 l1.94 0 l0 14.36 l-1.94 0 l0 -6.7 l-7.5 0 l0 6.7 l-1.94 0 l0 -14.36 l1.94 0 l0 5.94 l7.5 0 z M57.312 15.82 l-5.76 0 l-1.5 4.18 l-2 0 l5.4 -14.36 l2.2 0 l5.2 14.36 l-2.12 0 z M52.152 14.1 l4.46 0 l-2.12 -6.32 l-0.04 0 z M72.72800000000001 20 l0 -14.36 l5.82 0 c3.74 0 6.04 2.84 6.04 6.98 c0 3.22 -1.4 7.38 -6.12 7.38 l-5.74 0 z M74.668 7.300000000000001 l0 11.04 l3.76 0 c2.52 0 4.16 -1.98 4.16 -5.6 s-1.66 -5.44 -4.3 -5.44 l-3.62 0 z M108.32400000000001 12.82 c0 -3.38 -1.88 -5.84 -5 -5.84 s-5 2.46 -5 5.84 s1.88 5.84 5 5.84 s5 -2.46 5 -5.84 z M110.32400000000001 12.82 c0 3.1 -1.64 7.56 -7 7.56 s-7 -4.46 -7 -7.56 s1.64 -7.56 7 -7.56 s7 4.46 7 7.56 z M130.52 8.1 l-3.32 11.9 l-2.04 0 l-3.74 -14.36 l2.1 0 l2.68 11.68 l0.04 0 l3.22 -11.68 l2.12 0 l3.22 11.68 l0.04 0 l2.68 -11.68 l2.14 0 l-3.78 14.36 l-2.04 0 l-3.28 -11.9 l-0.04 0 z M161.976 9.84 l-1.82 0 c-0.1 -2.22 -1.94 -2.92 -3.56 -2.92 c-1.22 0 -3.28 0.34 -3.28 2.52 c0 1.22 0.86 1.62 1.7 1.82 l4.1 0.94 c1.86 0.44 3.26 1.56 3.26 3.84 c0 3.4 -3.16 4.34 -5.62 4.34 c-2.66 0 -3.7 -0.8 -4.34 -1.38 c-1.22 -1.1 -1.46 -2.3 -1.46 -3.64 l1.82 0 c0 2.6 2.12 3.36 3.96 3.36 c1.4 0 3.76 -0.36 3.76 -2.42 c0 -1.5 -0.7 -1.98 -3.06 -2.54 l-2.94 -0.68 c-0.94 -0.22 -3.06 -0.88 -3.06 -3.38 c0 -2.24 1.46 -4.44 4.94 -4.44 c5.02 0 5.52 3 5.6 4.58 z M190.48800000000003 20 l0 -14.36 l5.82 0 c3.74 0 6.04 2.84 6.04 6.98 c0 3.22 -1.4 7.38 -6.12 7.38 l-5.74 0 z M192.42800000000003 7.300000000000001 l0 11.04 l3.76 0 c2.52 0 4.16 -1.98 4.16 -5.6 s-1.66 -5.44 -4.3 -5.44 l-3.62 0 z M222.84400000000002 15.82 l-5.76 0 l-1.5 4.18 l-2 0 l5.4 -14.36 l2.2 0 l5.2 14.36 l-2.12 0 z M217.68400000000003 14.1 l4.46 0 l-2.12 -6.32 l-0.04 0 z M247.68000000000004 17.240000000000002 l0 -11.6 l1.88 0 l0 14.36 l-2.18 0 l-7.3 -11.6 l-0.04 0 l0 11.6 l-1.88 0 l0 -14.36 l2.3 0 l7.18 11.6 l0.04 0 z M274.55600000000004 9.96 l-1.88 0 c-0.54 -2.52 -2.64 -2.98 -4.02 -2.98 c-2.6 0 -4.7 1.92 -4.7 5.7 c0 3.38 1.2 5.98 4.76 5.98 c1.26 0 3.44 -0.6 4.1 -3.94 l1.88 0 c-0.8 5.42 -5.2 5.66 -6.28 5.66 c-3.26 0 -6.46 -2.12 -6.46 -7.64 c0 -4.42 2.52 -7.48 6.7 -7.48 c3.7 0 5.62 2.3 5.9 4.7 z M297.832 18.28 l0 1.72 l-10.6 0 l0 -14.36 l10.46 0 l0 1.72 l-8.52 0 l0 4.4 l7.86 0 l0 1.72 l-7.86 0 l0 4.8 l8.66 0 z M337.18399999999997 12.82 c0 -3.38 -1.88 -5.84 -5 -5.84 s-5 2.46 -5 5.84 s1.88 5.84 5 5.84 s5 -2.46 5 -5.84 z M339.18399999999997 12.82 c0 3.1 -1.64 7.56 -7 7.56 s-7 -4.46 -7 -7.56 s1.64 -7.56 7 -7.56 s7 4.46 7 7.56 z M361 17.240000000000002 l0 -11.6 l1.88 0 l0 14.36 l-2.18 0 l-7.3 -11.6 l-0.04 0 l0 11.6 l-1.88 0 l0 -14.36 l2.3 0 l7.18 11.6 l0.04 0 z M390.2319999999999 7.359999999999999 l0 -1.72 l11.66 0 l0 1.72 l-4.86 0 l0 12.64 l-1.94 0 l0 -12.64 l-4.86 0 z M423.14799999999997 11.58 l0 -5.94 l1.94 0 l0 14.36 l-1.94 0 l0 -6.7 l-7.5 0 l0 6.7 l-1.94 0 l0 -14.36 l1.94 0 l0 5.94 l7.5 0 z M448.9239999999999 18.28 l0 1.72 l-10.6 0 l0 -14.36 l10.46 0 l0 1.72 l-8.52 0 l0 4.4 l7.86 0 l0 1.72 l-7.86 0 l0 4.8 l8.66 0 z M487.4959999999999 9.84 l-1.82 0 c-0.1 -2.22 -1.94 -2.92 -3.56 -2.92 c-1.22 0 -3.28 0.34 -3.28 2.52 c0 1.22 0.86 1.62 1.7 1.82 l4.1 0.94 c1.86 0.44 3.26 1.56 3.26 3.84 c0 3.4 -3.16 4.34 -5.62 4.34 c-2.66 0 -3.7 -0.8 -4.34 -1.38 c-1.22 -1.1 -1.46 -2.3 -1.46 -3.64 l1.82 0 c0 2.6 2.12 3.36 3.96 3.36 c1.4 0 3.76 -0.36 3.76 -2.42 c0 -1.5 -0.7 -1.98 -3.06 -2.54 l-2.94 -0.68 c-0.94 -0.22 -3.06 -0.88 -3.06 -3.38 c0 -2.24 1.46 -4.44 4.94 -4.44 c5.02 0 5.52 3 5.6 4.58 z M509.81199999999995 11.58 l0 -5.94 l1.94 0 l0 14.36 l-1.94 0 l0 -6.7 l-7.5 0 l0 6.7 l-1.94 0 l0 -14.36 l1.94 0 l0 5.94 l7.5 0 z M536.0479999999999 12.82 c0 -3.38 -1.88 -5.84 -5 -5.84 s-5 2.46 -5 5.84 s1.88 5.84 5 5.84 s5 -2.46 5 -5.84 z M538.0479999999999 12.82 c0 3.1 -1.64 7.56 -7 7.56 s-7 -4.46 -7 -7.56 s1.64 -7.56 7 -7.56 s7 4.46 7 7.56 z M552.524 13.84 l0 6.16 l-1.94 0 l0 -14.36 l6.64 0 c2.36 0 4.72 0.82 4.72 3.86 c0 2.12 -1.08 2.9 -2 3.44 c0.82 0.34 1.64 0.7 1.72 2.7 l0.12 2.6 c0.02 0.8 0.12 1.1 0.72 1.44 l0 0.32 l-2.38 0 c-0.28 -0.88 -0.34 -3.06 -0.34 -3.6 c0 -1.18 -0.24 -2.56 -2.56 -2.56 l-4.7 0 z M552.524 7.300000000000001 l0 4.88 l4.5 0 c1.42 0 2.92 -0.36 2.92 -2.48 c0 -2.22 -1.62 -2.4 -2.58 -2.4 l-4.84 0 z M585.58 18.28 l0 1.72 l-10.6 0 l0 -14.36 l10.46 0 l0 1.72 l-8.52 0 l0 4.4 l7.86 0 l0 1.72 l-7.86 0 l0 4.8 l8.66 0 z"></path></g>
</g>
</svg>